<mxfile host="app.diagrams.net" modified="2024-04-08T06:52:00.951Z" agent="Mozilla/5.0 (Windows NT 10.0; Win64; x64) AppleWebKit/537.36 (KHTML, like Gecko) Chrome/123.0.0.0 Safari/537.36 Edg/123.0.0.0" version="24.2.2" etag="yNMRf3mHiXGwxvTSPu52" type="github">
  <diagram name="Page-1" id="s1Js6S9fdN77kl7s9mDe">
    <mxGraphModel>
      <root>
        <mxCell id="0" />
        <mxCell id="1" parent="0" />
      </root>
    </mxGraphModel>
  </diagram>
</mxfile>
